<?xml version="1.0"?>
<svg xmlns="http://www.w3.org/2000/svg" xmlns:xlink="http://www.w3.org/1999/xlink" xmlns:svgjs="http://svgjs.com/svgjs" version="1.1" width="512" height="512" x="0" y="0" viewBox="0 0 559.825 559.825" style="enable-background:new 0 0 512 512" xml:space="preserve" class=""><g>
<g xmlns="http://www.w3.org/2000/svg">
	<g>
		<path d="M556.602,203.023c-8.613-5.414-17.463-10.379-26.61-14.798c-0.681-0.474-1.436-0.845-2.243-1.085    c-3.256-1.53-6.545-2.995-9.882-4.378c-0.657-0.273-1.31-0.665-1.938-1.138c-0.489-0.51-1.02-0.987-1.587-1.42    c-1.094-1.146-2.012-2.493-2.583-3.79c-4.655-10.563-17.715-19.368-29.058-19.951c-10.09-0.519-19.086,1.583-28.25,6.018    c-4.423,2.142-10.865,0.392-16.353-0.082c-2.705-0.232-5.268-1.775-7.973-2.37c-6.695-1.477-10.199-6.157-13.41-11.147    c-1.412-2.746-3.064-5.357-4.929-7.809c-0.665-1.301-1.135-2.595-1.437-3.876c0.298-1.599,0.457-3.231,0.457-4.875    c0-1.102-0.077-2.195-0.212-3.284c0.693-2.457,1.901-4.913,3.517-7.405c2.211-3.411,3.647-7.564,4.459-11.579    c0.779-3.848-0.615-7.005-3.451-9.739c-0.465-0.693-1-1.358-1.611-1.966c-1.15-1.15-2.477-2.032-3.896-2.672    c-6.341-5.467-12.306-11.437-19.168-16.116c-10.796-7.364-22.354-13.66-33.848-19.935c-6.116-3.337-12.688-5.916-19.229-8.38    c-5.875-2.215-11.917-4.068-18.013-5.569c-3.676-0.906-6.695,0.567-7.36,4.839c-1.216,7.846-2.852,15.643,1.497,23.256    c1.036,1.812,0.123,4.639,0.743,6.822c0.452,1.596,1.424,3.044,2.419,4.672c-0.184,2.607,0.065,5.255,0.82,7.858    c0.926,6.169,1.84,12.338,2.831,18.499c0.249,1.542,0.674,3.138,1.388,4.513c3.056,5.879,1.57,10.355-1.481,16.41    c-4.443,8.813-5.81,19.217-8.188,29.017c-0.714,2.95-1.195,5.953-1.648,8.968c-0.938,2.57-1.489,5.28-1.615,8.038    c-1.375,3.929-2.774,7.85-3.982,11.832c-0.285,0.942,0.396,2.199,0.71,3.289c0.294,1.008,1.021,1.995,0.976,2.97    c-0.086,1.954-0.567,3.888-0.886,5.834c0.6,0.065,1.203,0.13,1.804,0.196c0.122,1.579,0.383,3.137,0.779,4.659    c-4.66,2.75-9.344,5.471-13.619,8.723c-1.808,1.375-3.701,2.444-5.647,3.309c-3.275,0.958-6.54,1.95-9.804,2.946    c-3.672,0.747-7.405,1.289-11.057,2.122c-5.953,1.354-12.363,1.358-17.928,3.578c-0.938,0.375-1.853,0.824-2.75,1.322    c-11.036,3.056-20.327,9.768-29.307,16.765c-26.361,20.539-62.697,29.462-93.803,41.208    c-39.588,14.949-79.181,29.895-118.769,44.844c-9.327,3.521-5.749,18.217,3.312,15.903c1.979,2.546,5.447,4.142,8.556,2.938    c41.163-15.937,82.326-31.873,123.493-47.813c9.47-2.949,18.809-6.308,27.981-10.057c2.248,2.582,5.891,3.781,9.678,1.399    c9.845-6.206,19.857-12.689,30.473-17.72c0.388-0.151,0.759-0.327,1.122-0.518c4.533-2.093,9.172-3.925,13.962-5.337    c7.883-2.33,15.977-3.921,24.235-3.558c8.495,0.371,16.067,3.398,24.325,4.974c0.73,0.139,1.449,0.257,2.167,0.367l2.44,0.437    c0.224,0.049,0.453,0.094,0.686,0.122c2.484,0.449,4.969,0.894,7.454,1.342c3.403,0.612,6.818-0.432,8.735-3.097    c0.041-0.028,0.082-0.049,0.123-0.077c0.126-0.09,0.257-0.171,0.383-0.257c0.861-0.302,1.727-0.636,2.596-1.008    c4.088-1.767,7.968-4.043,12.023-5.851c14.464-4.019,30.163-0.991,42.134,9.617c8.426,11.666,16.813,23.354,25.464,34.848    c2.696,3.582,6.609,6.246,9.91,9.388c1.685,1.604,3.215,3.374,4.884,5.002c2.913,2.84,5.875,5.626,9.339,8.931    c3.566,21.983,4.28,45.631,12.02,67.916c0.384,1.347,0.792,2.685,1.229,4.011c0.795,4.88,2.423,9.625,4.798,13.962    c0.628,4.558,1.987,8.711,7.531,10.742c1.021,7.45,1.539,14.729,3.236,21.723c0.42,1.733,2.235,3.101,3.99,4.521    c1.097,1.42,2.325,2.729,3.676,3.908c0.314,0.534,0.551,1.09,0.607,1.637c0.567,5.291,0.775,10.624,1.204,15.937    c0.081,1.012,0.277,2.293,0.93,2.917c1.519,1.456,3.22,3.138,5.117,3.59c0.791,0.188,2.272-2.517,3.573-4.067    c0.739,5.275,1.208,10.905,2.465,16.36c0.448,1.959,2.521,4.333,4.354,4.9c1.191,0.367,3.284-2.199,5.291-3.688    c1.718,5.974-0.469,14.741,8.413,17.903c5.684-7.785,5.039-17.152,6.446-25.989c1.612-10.095,3.134-20.209,4.484-30.34    c1.188-8.927,2.574-17.874,2.99-26.854c0.747-16.104,0.653-32.244,1.253-48.355c0.375-10.135,1.946-20.245,1.954-30.368    c0.013-14.716-0.808-29.44-1.477-44.149c-0.232-5.083,0.077-10.665-1.926-15.084c-2.664-5.879-6.907-11.232-11.253-16.12    c-1.24-1.396-2.509-2.766-3.799-4.121c-7.874-9.666-16.381-18.821-24.826-28.001c-0.682-1.102-1.208-2.134-1.27-2.24    c0.144-0.094,0.278-0.188,0.421-0.281c13.863-7.332,26.96-15.81,39.462-25.19c0.388-0.175,0.774-0.347,1.158-0.526    c6.903-3.199,13.994-6.035,20.723-9.568c9.009-4.729,18.588-3.558,27.956-2.966c8.891,0.563,17.69,2.513,28.144,4.096    C558.438,205.978,557.923,203.856,556.602,203.023z" fill="#ffffff" data-original="#000000" style=""/>
	</g>
</g>
<g xmlns="http://www.w3.org/2000/svg">
</g>
<g xmlns="http://www.w3.org/2000/svg">
</g>
<g xmlns="http://www.w3.org/2000/svg">
</g>
<g xmlns="http://www.w3.org/2000/svg">
</g>
<g xmlns="http://www.w3.org/2000/svg">
</g>
<g xmlns="http://www.w3.org/2000/svg">
</g>
<g xmlns="http://www.w3.org/2000/svg">
</g>
<g xmlns="http://www.w3.org/2000/svg">
</g>
<g xmlns="http://www.w3.org/2000/svg">
</g>
<g xmlns="http://www.w3.org/2000/svg">
</g>
<g xmlns="http://www.w3.org/2000/svg">
</g>
<g xmlns="http://www.w3.org/2000/svg">
</g>
<g xmlns="http://www.w3.org/2000/svg">
</g>
<g xmlns="http://www.w3.org/2000/svg">
</g>
<g xmlns="http://www.w3.org/2000/svg">
</g>
</g></svg>
