<?xml version="1.0" standalone="no"?>
<!DOCTYPE svg PUBLIC "-//W3C//DTD SVG 20010904//EN"
 "http://www.w3.org/TR/2001/REC-SVG-20010904/DTD/svg10.dtd">
<svg version="1.0" xmlns="http://www.w3.org/2000/svg"
 width="209.000000pt" height="209.000000pt" fill="#FFFFFF" viewBox="0 0 209.000000 209.000000"
 preserveAspectRatio="xMidYMid meet">
<metadata>
Created by potrace 1.16, written by Peter Selinger 2001-2019
</metadata>
<g transform="translate(0.000000,209.000000) scale(0.100000,-0.100000)"
fill="#000000" stroke="none">
<path fill="#FFFFFF" d="M885 2050 c-33 -5 -98 -21 -145 -36 -494 -153 -794 -646 -705 -1159
78 -443 469 -802 909 -831 50 -3 102 -2 114 3 23 9 22 11 -33 53 -115 89 -194
198 -241 335 -27 79 -28 85 -34 400 -6 262 -10 328 -24 364 -36 97 -101 151
-224 186 l-76 23 74 47 c41 26 119 77 173 113 141 93 202 116 297 109 83 -5
172 -37 243 -86 24 -16 218 -163 431 -326 213 -163 394 -299 401 -302 13 -4
15 14 15 111 0 270 -95 498 -290 697 -198 202 -414 297 -695 304 -71 2 -157 0
-190 -5z"/>
<path fill="#FFFFFF" d="M872 1467 c-49 -52 -15 -127 56 -127 49 0 72 24 72 73 0 71 -80 105
-128 54z"/>
<path fill="#FFFFFF" d="M1342 1083 c-31 -12 -42 -61 -42 -193 l0 -130 -124 0 c-67 0 -137 -5
-155 -11 -64 -23 -79 -116 -24 -159 23 -18 40 -20 164 -20 l138 0 3 -146 c3
-146 3 -146 31 -170 40 -34 90 -32 128 5 l29 29 0 141 0 141 139 0 c124 0 141
2 164 20 55 43 40 136 -24 159 -18 6 -88 11 -155 11 l-124 0 0 130 c0 136 -10
180 -45 194 -19 7 -84 7 -103 -1z"/>
</g>
</svg>
